<svg xmlns="http://www.w3.org/2000/svg" width="80" height="80" viewBox="0 0 24 24" fill="none" stroke="#F9D77E" stroke-width="2" stroke-linecap="round" stroke-linejoin="round">
  <path d="M8 2a4.5 4.5 0 0 0-1.8 8.6" />
  <path d="M2 12h1" />
  <path d="M8 4v1" />
  <path d="M8 17v1" />
  <path d="M4.2 5.6l.7.7" />
  <path d="M4.2 18.4l.7-.7" />
  <path d="M16 7a4 4 0 0 0-4 4h-1a5 5 0 1 0 0 10h11.5a3.5 3.5 0 0 0 .5-7h-1a4 4 0 0 0-6-7z" stroke="#A9B5C1" fill="#A9B5C1" fill-opacity="0.4" />
</svg> 